<svg width="44" height="44" viewBox="0 0 44 44" fill="none" xmlns="http://www.w3.org/2000/svg">
<circle cx="22" cy="22" r="22" fill="black"/>
<path d="M11.1789 15.7401C9.98065 18.6833 8.99517 21.0922 8.98915 21.0922C8.98313 21.0922 8.96105 21.058 8.94098 21.0156C8.78242 20.681 8.32681 20.2839 7.8411 20.0561C7.29517 19.8001 6.73921 19.6811 6.08289 19.6811C5.58513 19.6811 5.26801 19.7275 4.86458 19.8565C4.09587 20.1024 3.43955 20.6266 3.15053 21.2172C3.03613 21.4511 3 21.6043 3 21.8583C3.00201 22.2453 3.13849 22.5376 3.47769 22.8783C4.58359 23.987 6.75928 24.1664 8.13614 23.2593C8.52551 23.0033 8.80249 22.6969 8.97711 22.332C9.03531 22.209 9.88632 20.1347 10.8678 17.7217C11.8493 15.3067 12.6601 13.3312 12.6722 13.3312C12.6822 13.3312 12.7866 13.3876 12.905 13.4541C13.5733 13.8392 14.1052 14.4137 14.4384 15.1092C14.6471 15.5446 14.7415 15.9195 14.7635 16.3751C14.7896 16.9779 14.6752 17.4778 14.326 18.2841C14.1815 18.6208 14.5408 18.2096 14.8519 17.6854C15.0947 17.2742 15.3215 16.7601 15.4419 16.3429C15.6105 15.7643 15.6186 15.1233 15.464 14.6697C15.3617 14.3633 15.2473 14.1899 14.892 13.7948C14.7676 13.6557 14.611 13.4723 14.5468 13.3876C14.2176 12.9562 13.9426 12.3797 13.7761 11.7689C13.7138 11.535 13.6255 11.0815 13.6255 10.9827C13.6255 10.9585 13.6617 10.8517 13.7038 10.7448L13.7821 10.5513L13.6115 10.4787C13.5171 10.4404 13.4208 10.4021 13.3967 10.3981C13.3586 10.388 13.194 10.7811 11.1789 15.7401Z" fill="white"/>
<path d="M23.9003 10.6501C23.2079 10.7428 22.5516 11.3436 21.8491 12.5208C21.2751 13.4844 20.3277 15.853 19.5369 18.3003C19.0733 19.7396 19.0572 19.782 19.0251 19.782C19.0091 19.782 18.9388 19.7235 18.8706 19.6529C18.7 19.4776 18.6458 19.4493 18.4611 19.4493C18.2865 19.4493 18.128 19.4977 17.847 19.6288C17.5399 19.7759 17.4395 19.9009 17.4636 20.1085C17.4857 20.298 17.6162 20.4472 17.8068 20.5077C17.9012 20.5379 18.3949 20.5218 18.6578 20.4815C18.7682 20.4633 18.8204 20.4613 18.8164 20.4754C18.8044 20.5057 18.6057 21.1165 17.6864 23.9145C16.6307 27.1378 15.9282 29.2202 15.6592 29.9379C15.4806 30.4116 15.5107 30.4822 15.872 30.462C16.0045 30.4539 16.0546 30.4398 16.1971 30.3713C16.2875 30.3269 16.4541 30.2261 16.5664 30.1475C16.7591 30.0125 16.7732 29.9984 16.8494 29.8472C16.9378 29.6778 17.3793 28.3433 17.4154 28.1377C17.4275 28.0712 17.4456 27.8898 17.4556 27.7325C17.4777 27.416 17.5339 27.1096 17.6703 26.5795C17.9574 25.4566 18.5936 23.3722 19.3864 20.9592C19.561 20.4291 19.5911 20.3484 19.6313 20.3404C19.8922 20.2758 21.6584 19.9392 21.7708 19.9311C21.8511 19.9251 21.9354 19.913 21.9575 19.9009C21.9776 19.8908 22.0598 19.8646 22.1401 19.8424C22.2184 19.8223 22.3489 19.7779 22.4251 19.7457C22.5034 19.7114 22.6519 19.6529 22.7563 19.6126L22.947 19.5401L23.226 19.5905C23.3805 19.6187 23.5371 19.6409 23.5732 19.6409C23.6495 19.6409 23.6475 19.6308 23.6113 19.8122C23.5953 19.8888 23.5772 20.0299 23.5692 20.1247C23.5471 20.4492 23.515 20.7193 23.4969 20.7415C23.4849 20.7576 23.4969 20.7718 23.5331 20.7879C23.5832 20.808 23.5893 20.8221 23.5913 20.9068C23.5913 20.9592 23.5993 21.183 23.6053 21.4047C23.6133 21.6265 23.6254 21.9833 23.6314 22.1949L23.6434 22.584H23.7699C23.8943 22.584 23.8983 22.586 23.9104 22.6425C23.9164 22.6767 23.9485 22.7352 23.9806 22.7755C24.0469 22.8582 24.0689 22.9509 24.1111 23.2996C24.1272 23.4327 24.1532 23.6323 24.1693 23.7431C24.2054 23.975 24.2094 24.102 24.1833 24.1524C24.1713 24.1705 24.1573 24.2209 24.1512 24.2612C24.1432 24.3177 24.1292 24.3378 24.1031 24.3378C24.083 24.3378 24.0529 24.3519 24.0388 24.3701C24.0148 24.4003 24.0107 24.3983 24.0007 24.358C23.9826 24.2794 23.9405 24.2854 23.9405 24.366C23.9405 24.4305 23.9305 24.4447 23.8702 24.4729C23.8221 24.4971 23.8 24.5192 23.8 24.5495C23.8 24.6039 23.6836 24.6543 23.519 24.6745C23.3183 24.6987 23.2541 24.8337 23.4106 24.9083C23.4728 24.9385 23.5832 24.9426 24.354 24.9426H25.229L25.219 24.8881C25.1889 24.7168 25.1588 24.5858 25.1447 24.5495C25.0885 24.4225 25.0785 24.3096 25.0865 23.8943C25.1026 23.0315 25.1066 23.0779 24.9802 22.7453C24.8577 22.4227 24.8537 22.3945 24.8236 21.8119C24.8035 21.4188 24.8035 21.4067 24.8517 21.2072C24.8798 21.0943 24.9079 20.9491 24.9139 20.8846C24.924 20.808 24.938 20.7697 24.9561 20.7697C25.0083 20.7697 25.0063 20.677 24.942 20.3061C24.9019 20.0642 24.8798 19.8626 24.8798 19.7336C24.8798 19.5501 24.8858 19.5118 24.9802 19.2195C25.1688 18.6309 25.223 18.3527 25.1849 18.1793C25.1728 18.1209 25.1789 18.0745 25.219 17.9616C25.2632 17.8346 25.2712 17.7782 25.2752 17.5141C25.2772 17.2984 25.2913 17.1573 25.3194 17.0202C25.3434 16.9154 25.3715 16.7158 25.3836 16.5767C25.4277 16.0849 25.4719 15.8712 25.5241 15.8712C25.5622 15.8712 25.6024 15.4559 25.5743 15.3612C25.5602 15.3148 25.5181 15.3269 25.51 15.3793C25.492 15.4983 25.4859 15.5124 25.4558 15.4882C25.3796 15.4257 25.4538 15.1535 25.5602 15.0971C25.5923 15.081 25.6305 15.0527 25.6445 15.0366C25.6626 15.0165 25.7047 15.0044 25.7649 15.0044C25.9536 15.0044 26.1282 14.8411 26.1443 14.6496C26.1523 14.5508 26.1483 14.5367 26.0921 14.4802C26.0479 14.4359 26.0118 14.4198 25.9596 14.4198C25.8954 14.4198 25.8894 14.4137 25.8834 14.3553L25.8773 14.2887L25.4859 14.2262C25.1548 14.1718 25.0906 14.1658 25.0725 14.19C25.0604 14.2061 25.0143 14.2182 24.9701 14.2182C24.8156 14.2182 24.7333 14.3371 24.7473 14.5347C24.7594 14.7 24.8136 14.8028 24.922 14.8592C24.9701 14.8854 25.0223 14.9016 25.0384 14.8955C25.0524 14.8895 25.0645 14.8935 25.0645 14.9036C25.0645 14.9137 25.1006 14.964 25.1468 15.0165C25.205 15.085 25.225 15.1233 25.217 15.1535C25.211 15.1777 25.205 15.2382 25.205 15.2886C25.205 15.3632 25.1909 15.3975 25.1327 15.4741C25.0926 15.5265 25.0504 15.5628 25.0344 15.5567C25.0063 15.5446 24.9962 15.5708 24.9761 15.6918C24.9641 15.7603 24.9681 15.7684 25.0183 15.7865C25.0604 15.8006 25.0865 15.8329 25.1187 15.9196C25.1628 16.0284 25.1628 16.0365 25.1347 16.1978C25.1187 16.2905 25.0685 16.478 25.0243 16.6171C24.9802 16.7562 24.938 16.9235 24.93 16.99C24.924 17.0565 24.8939 17.1613 24.8658 17.2218C24.8377 17.2823 24.7915 17.4032 24.7634 17.4879C24.7353 17.5746 24.7012 17.6451 24.6891 17.6451C24.653 17.6451 24.657 17.627 24.7132 17.5343C24.7453 17.4819 24.7634 17.4234 24.7634 17.369C24.7634 17.3226 24.7734 17.2823 24.7875 17.2783C24.8196 17.2662 24.8116 17.1452 24.7774 17.1029C24.7614 17.0847 24.7433 17.0565 24.7373 17.0364C24.7253 17.0021 24.5406 16.8993 24.4924 16.8993C24.4764 16.8993 24.4503 16.8852 24.4342 16.867C24.4122 16.8448 24.3821 16.8388 24.3359 16.8469C24.3018 16.8529 24.2837 16.8529 24.2978 16.8469C24.3098 16.8408 24.3218 16.8267 24.3218 16.8166C24.3218 16.7824 24.2616 16.7985 24.2175 16.8428C24.1914 16.869 24.1272 16.9013 24.071 16.9154C23.9345 16.9517 23.8401 17.0424 23.8401 17.1432C23.8401 17.1855 23.8502 17.2218 23.8622 17.2258C23.8783 17.2319 23.8783 17.2561 23.8622 17.3186C23.8462 17.377 23.8442 17.4153 23.8582 17.4415C23.8702 17.4637 23.8783 17.5141 23.8783 17.5585C23.8763 17.6008 23.8923 17.7076 23.9144 17.7963L23.9525 17.9576L24.0388 17.9637C24.087 17.9677 24.1272 17.9818 24.1332 17.9979C24.1392 18.014 24.0689 18.1007 23.9626 18.2096C23.7538 18.4253 23.6695 18.5382 23.6675 18.6107C23.6675 18.639 23.6454 18.7297 23.6214 18.8103C23.5752 18.9555 23.5732 19.0583 23.6113 19.1893C23.6234 19.2316 23.6153 19.2336 23.4247 19.2498C23.3163 19.2599 23.0995 19.2659 22.945 19.2639C22.7021 19.2619 22.6359 19.2538 22.4974 19.2095C22.4011 19.1792 22.2586 19.153 22.1441 19.1449L21.9535 19.1308V18.7458C21.9535 18.5341 21.9454 18.3507 21.9374 18.3386C21.9194 18.3124 20.5887 18.0221 20.5244 18.0322L20.4783 18.0382L20.4863 18.8164L20.4943 19.5925L20.1973 19.6187C20.0347 19.6328 19.8962 19.6388 19.8902 19.6328C19.8641 19.6046 20.2715 18.3023 20.5565 17.496C20.8636 16.6332 21.4096 15.2322 21.6966 14.571C22.1622 13.5025 22.6018 12.8353 23.0413 12.5309C23.3745 12.2991 23.6515 12.2124 24.2175 12.164C24.3519 12.1519 24.5707 12.1318 24.7032 12.1197C25.2632 12.0713 25.4217 11.9544 25.3655 11.6399C25.3374 11.4786 25.231 11.2407 25.1227 11.1017C24.9159 10.8315 24.6289 10.7065 24.071 10.642C24.0388 10.638 23.9606 10.64 23.9003 10.6501ZM25.0042 14.4097C24.9982 14.454 24.9962 14.5508 24.9982 14.6254C25.0002 14.7705 24.9802 14.7967 24.92 14.7262C24.7975 14.5851 24.8336 14.3069 24.9741 14.323C25.0083 14.3291 25.0123 14.3411 25.0042 14.4097ZM26.0118 14.5548C26.068 14.6052 26.056 14.6859 25.9777 14.7766C25.9175 14.8491 25.7991 14.9217 25.779 14.9016C25.775 14.8975 25.793 14.8209 25.8211 14.7322C25.8492 14.6435 25.8753 14.5589 25.8793 14.5447C25.8894 14.5105 25.9677 14.5145 26.0118 14.5548ZM24.6831 17.75C24.6831 17.7641 24.6731 17.7903 24.663 17.8064C24.647 17.8306 24.643 17.8246 24.643 17.7802C24.643 17.75 24.653 17.7258 24.663 17.7258C24.6751 17.7258 24.6831 17.7379 24.6831 17.75ZM22.1542 19.2538C22.1542 19.2619 22.1281 19.2982 22.098 19.3324C22.0538 19.3788 22.0277 19.3929 21.9916 19.3848C21.9475 19.3768 21.9434 19.3667 21.9495 19.3062C21.9575 19.2377 21.9595 19.2377 22.0558 19.2377C22.11 19.2377 22.1542 19.2437 22.1542 19.2538ZM24.6952 23.9185C24.7092 24.0737 24.6811 24.2572 24.6349 24.3156C24.6169 24.3378 24.6109 24.3338 24.6008 24.2955C24.5787 24.2169 24.5808 23.9871 24.6048 23.8218C24.6269 23.6766 24.6309 23.6706 24.655 23.7169C24.6691 23.7431 24.6871 23.8359 24.6952 23.9185Z" fill="white"/>
<path d="M36.9074 17.496C36.8833 17.5404 36.8833 17.5545 36.9175 17.617C36.9375 17.6553 36.9476 17.6916 36.9415 17.6996C36.9335 17.7057 36.8914 17.6996 36.8492 17.6855C36.8031 17.6714 36.7469 17.6653 36.7127 17.6754C36.6826 17.6835 36.5582 17.6916 36.4358 17.6956C35.9561 17.7077 35.7313 17.877 35.7072 18.2439C35.6951 18.4455 35.7373 18.6088 35.9139 19.0361C36.1949 19.7175 36.231 19.9211 36.1206 20.2174C36.0223 20.4835 35.8236 20.7113 35.362 21.0822C34.7899 21.5418 34.6595 21.7072 34.6434 22.0055C34.6354 22.1547 34.6374 22.1708 34.7056 22.3079C34.7498 22.3946 34.8461 22.5296 34.9485 22.6465L35.1171 22.838L34.9244 22.9348C34.3745 23.209 33.9048 23.5678 33.6439 23.9105C33.2345 24.4568 33.104 25.1462 33.2746 25.8679C33.2967 25.9606 33.3107 26.0413 33.3067 26.0473C33.3007 26.0513 33.0478 26.0413 32.7427 26.0211C32.0844 25.9788 30.9765 25.9888 30.4647 26.0413C29.2323 26.1662 28.293 26.4202 27.3938 26.8698C26.1314 27.5028 25.2041 28.424 24.8689 29.3775C24.7585 29.694 24.7344 29.8391 24.7364 30.1939C24.7384 30.5487 24.7746 30.7362 24.903 31.0608C25.2844 32.0183 26.4304 32.8912 27.6668 33.1653C28.1605 33.2762 28.9413 33.3064 29.4511 33.2379C31.6027 32.9476 33.3087 31.857 34.0875 30.2746C34.529 29.3755 34.6033 28.4462 34.3062 27.5471C34.2681 27.4342 34.1336 27.0956 34.0072 26.7952C33.8807 26.4968 33.7764 26.2469 33.7764 26.2428C33.7764 26.2187 34.1758 26.2489 34.8201 26.3235C35.1151 26.3598 35.3038 26.3618 35.4824 26.3336C35.7533 26.2892 36.0705 26.0816 36.1206 25.9143C36.1588 25.7852 36.1508 25.6421 36.1006 25.5776C36.0283 25.4849 35.9541 25.4667 35.653 25.4667C35.2917 25.4667 35.1934 25.4264 35.097 25.2349C35.0609 25.1684 35.0569 25.1301 35.0669 24.9829C35.079 24.7894 35.1312 24.616 35.2837 24.2754C35.5346 23.7049 35.5506 23.3803 35.3399 23.0396C35.3078 22.9852 35.2837 22.9388 35.2857 22.9368C35.2897 22.9328 35.3559 22.9005 35.4322 22.8602C35.8457 22.6546 36.6104 22.4288 37.0941 22.3724C37.2165 22.3563 37.2526 22.322 37.1443 22.322C37.0258 22.322 36.5622 22.3986 36.2852 22.4611C35.9681 22.5357 35.6971 22.6163 35.3961 22.7292L35.1793 22.8118L35.075 22.6949C34.7639 22.3462 34.6896 22.2091 34.7036 22.0095C34.7197 21.7434 34.8702 21.5539 35.3901 21.1387C35.8858 20.7416 36.0143 20.6004 36.1508 20.3102C36.2049 20.1932 36.215 20.1489 36.221 19.9715C36.231 19.7054 36.1929 19.5562 35.9942 19.0744C35.7714 18.5382 35.7252 18.3165 35.7875 18.1008C35.8216 17.9899 35.9661 17.8468 36.0946 17.8004C36.227 17.75 36.5883 17.7299 36.6565 17.7661C36.6846 17.7802 36.7067 17.8065 36.7067 17.8226C36.7067 17.8367 36.7388 17.879 36.779 17.9133C36.8191 17.9496 36.8693 18.0121 36.8894 18.0544C36.9114 18.0967 36.9516 18.1411 36.9777 18.1532C37.0138 18.1693 37.0278 18.1915 37.0278 18.2318C37.0278 18.2983 37.066 18.3407 37.1623 18.381C37.2005 18.3971 37.3249 18.4717 37.4353 18.5443C37.7283 18.7378 37.8949 18.8204 38.1378 18.895L38.3505 18.9615L38.2321 19.0381C38.1659 19.0805 38.0896 19.151 38.0595 19.1954C38.0093 19.274 38.0073 19.2841 38.0173 19.4837C38.0234 19.5986 38.0434 19.7719 38.0615 19.8727C38.0896 20.0239 38.0916 20.0803 38.0735 20.2154C38.0414 20.4432 38.0454 20.7678 38.0796 20.8323C38.1057 20.8827 38.1016 20.8907 37.9672 21.0439C37.8889 21.1306 37.7925 21.2536 37.7504 21.3141C37.6219 21.5035 37.351 22.0619 37.3289 22.1789C37.2807 22.445 37.4072 22.5861 37.7624 22.6627C37.933 22.701 38.2722 22.8159 38.479 22.9046C38.6074 22.961 38.6275 22.959 38.6717 22.8844L38.7098 22.8239L38.7459 23.0114C38.766 23.1263 38.7861 23.346 38.7921 23.5819L38.8041 23.9629L38.8844 23.9871L38.9647 24.0093L38.9627 24.2592C38.9607 24.4588 38.9506 24.5334 38.9165 24.6281C38.8704 24.7612 38.8603 24.7713 38.7439 24.8035C38.6255 24.8358 38.5733 24.8761 38.5733 24.9325C38.5733 24.9991 38.6355 25.0232 38.8101 25.0232C38.9165 25.0232 38.9627 25.0132 39.0329 24.9728C39.0791 24.9446 39.1373 24.9225 39.1594 24.9225C39.2377 24.9225 39.3701 24.8781 39.4263 24.8338C39.4785 24.7914 39.4805 24.7854 39.4584 24.7168C39.4464 24.6785 39.4203 24.6322 39.4002 24.614C39.2477 24.4749 39.2557 24.487 39.2557 24.3641C39.2557 24.2996 39.2617 24.1988 39.2678 24.1403L39.2818 24.0355H39.3681C39.4303 24.0355 39.4685 24.0234 39.4966 23.9952C39.5447 23.9468 39.5427 23.9689 39.5086 23.721C39.4725 23.471 39.4504 23.1001 39.4785 23.219C39.5166 23.3884 39.5588 23.471 39.611 23.4831C39.6973 23.5053 39.7394 23.4388 39.7635 23.2432L39.7856 23.0699L39.7214 22.9489C39.6852 22.8804 39.6571 22.7997 39.6571 22.7695C39.6571 22.7373 39.6431 22.6707 39.625 22.6183C39.5989 22.5397 39.5849 22.5236 39.5407 22.5195C39.4384 22.5135 39.3902 22.5216 39.3541 22.5558C39.332 22.576 39.3119 22.5861 39.3059 22.582C39.2798 22.5538 39.2557 22.2393 39.2537 21.8563C39.2517 21.4794 39.2577 21.4048 39.2939 21.2596C39.3561 21.0197 39.35 20.8423 39.2798 20.7053C39.2397 20.6287 39.2276 20.5883 39.2417 20.5662C39.2537 20.546 39.2316 20.4835 39.1594 20.3464C39.1052 20.2416 39.043 20.0904 39.0229 20.0118L38.9868 19.8687L39.059 19.7175C39.0972 19.6348 39.1594 19.534 39.1955 19.4917C39.2678 19.4091 39.4384 19.3123 39.4805 19.3284C39.4946 19.3345 39.5488 19.4071 39.6009 19.4897C39.6993 19.6469 39.7475 19.6812 39.8619 19.6812C39.9241 19.6812 39.9241 19.6812 40.1428 19.4333C40.2573 19.3042 40.2793 19.3063 40.2974 19.4433C40.3074 19.5119 40.3175 19.53 40.3496 19.53C40.3797 19.53 40.3917 19.5139 40.3957 19.4635C40.3998 19.4292 40.4058 19.399 40.4078 19.399C40.4118 19.399 40.4479 19.4131 40.4861 19.4292C40.5663 19.4615 40.6908 19.4695 40.6727 19.4413C40.6526 19.4111 40.7891 19.403 40.8313 19.4312C40.8835 19.4695 40.9617 19.4675 40.9617 19.4292C40.9617 19.4131 40.9156 19.3647 40.8594 19.3244L40.755 19.2498L40.8172 19.2297C40.8855 19.2055 40.9336 19.1651 40.8714 19.1833C40.765 19.2155 40.7209 19.2196 40.7209 19.2034C40.7209 19.1934 40.7691 19.1692 40.8293 19.151C40.8895 19.1309 40.9477 19.1027 40.9617 19.0865C40.9939 19.0462 40.9858 19.0482 40.8855 19.0966C40.8413 19.1188 40.7831 19.1369 40.757 19.1349C40.7149 19.1329 40.7149 19.1329 40.765 19.1168C40.8634 19.0865 41.0019 18.9535 40.9999 18.891C40.9999 18.8466 40.9979 18.8466 40.9818 18.887C40.9637 18.9333 40.8413 19.0442 40.8273 19.0281C40.8212 19.022 40.8373 18.9978 40.8594 18.9716C40.9457 18.8809 40.8935 18.8487 40.7209 18.8849C40.6526 18.8991 40.6526 18.8991 40.6908 18.8648L40.7309 18.8305L40.6908 18.8466C40.6125 18.8749 40.4038 18.8789 40.3255 18.8547L40.2492 18.8285L40.3275 18.8063C40.3717 18.7942 40.4098 18.7721 40.4138 18.76C40.4198 18.7418 40.4038 18.7418 40.3516 18.764C40.2693 18.7983 40.199 18.8023 40.199 18.7741C40.199 18.762 40.2292 18.7539 40.2673 18.7539C40.3436 18.7539 40.46 18.6713 40.46 18.6188C40.46 18.6007 40.4399 18.6128 40.4078 18.6511C40.3797 18.6854 40.3476 18.7136 40.3355 18.7136C40.3255 18.7136 40.3315 18.6995 40.3476 18.6813C40.4158 18.6128 40.4178 18.4455 40.3496 18.4354C40.3114 18.4294 40.3114 18.4314 40.3456 18.4576C40.3897 18.4939 40.3897 18.5785 40.3456 18.6148C40.3175 18.639 40.3135 18.639 40.3295 18.6148C40.3416 18.5926 40.3335 18.5886 40.2874 18.6007C40.2352 18.6128 40.2332 18.6108 40.2653 18.5866C40.3054 18.5523 40.3094 18.5281 40.2753 18.5342C40.199 18.5443 40.1649 18.5039 40.2352 18.4858C40.2633 18.4777 40.2613 18.4757 40.2271 18.4737C40.1449 18.4697 40.0907 18.383 39.9602 18.0463C39.8619 17.7923 39.7796 17.6875 39.615 17.6029C39.328 17.4577 39.1032 17.4577 38.8282 17.6029C38.7218 17.6593 38.6556 17.6835 38.6275 17.6754C38.5853 17.6633 38.5833 17.6633 38.6215 17.6936C38.6436 17.7117 38.6717 17.7258 38.6817 17.7278C38.6937 17.7278 38.6857 17.7359 38.6636 17.746C38.6255 17.7621 38.6275 17.7641 38.6717 17.7641C38.7198 17.7661 38.7198 17.7661 38.6817 17.7984C38.6436 17.8286 38.6436 17.8286 38.6857 17.8206C38.7098 17.8145 38.7419 17.8185 38.756 17.8286C38.776 17.8407 38.778 17.8468 38.76 17.8468C38.7459 17.8468 38.7339 17.8569 38.7339 17.8689C38.7339 17.879 38.7439 17.8831 38.7539 17.877C38.782 17.8589 38.78 17.9335 38.7519 17.9617C38.7379 17.9758 38.7238 18.0846 38.7178 18.2137C38.7098 18.4092 38.7138 18.4455 38.7419 18.4697C38.7961 18.516 38.782 18.5584 38.7198 18.5443C38.6877 18.5382 38.5452 18.5241 38.3987 18.514C38.1277 18.4939 38.0695 18.4757 37.9411 18.379C37.909 18.3548 37.8106 18.3064 37.7243 18.2721C37.4373 18.1572 37.2025 18.0262 37.2306 17.998C37.2406 17.9899 37.5417 18.1451 37.632 18.2036C37.7123 18.258 37.7885 18.262 37.8809 18.2177C37.9611 18.1794 37.9852 18.1028 37.9511 18C37.915 17.8871 37.8668 17.8589 37.6822 17.8448C37.4253 17.8246 37.1824 17.7722 37.1583 17.7319C37.1483 17.7117 37.1081 17.6674 37.072 17.6311C37.0359 17.5948 36.9957 17.5383 36.9857 17.5041C36.9596 17.4295 36.9415 17.4275 36.9074 17.496ZM40.2854 18.7277C40.2713 18.7317 40.2472 18.7317 40.2352 18.7277C40.2211 18.7217 40.2312 18.7176 40.2593 18.7176C40.2874 18.7176 40.2974 18.7217 40.2854 18.7277ZM38.5231 21.9813C38.5372 22.064 38.5472 22.1345 38.5412 22.1385C38.5251 22.1547 38.2743 22.0297 38.2722 22.0055C38.2722 21.9793 38.473 21.81 38.487 21.8241C38.491 21.8281 38.5071 21.8987 38.5231 21.9813ZM35.3098 23.1142C35.4061 23.2876 35.4503 23.467 35.4342 23.6242C35.4182 23.7855 35.366 23.9427 35.2175 24.2774C34.9726 24.8317 34.9405 25.1603 35.1131 25.3619C35.2134 25.4808 35.2997 25.5071 35.6329 25.5171C35.7895 25.5232 35.94 25.5353 35.9661 25.5454C36.0925 25.5937 36.1347 25.7348 36.0644 25.878C35.9882 26.0372 35.7995 26.1723 35.5526 26.2449C35.4141 26.2852 35.2757 26.2751 34.3885 26.1723C34.1136 26.14 33.8506 26.1118 33.8065 26.1078L33.7262 26.1017L33.682 25.9445C33.5656 25.5373 33.5255 25.1099 33.5757 24.8075C33.66 24.2794 33.8767 23.9327 34.3885 23.5134C34.6635 23.2876 35.1833 22.955 35.2235 22.9792C35.2335 22.9852 35.2716 23.0457 35.3098 23.1142ZM32.7768 26.142C33.1 26.1602 33.3649 26.1763 33.3669 26.1783C33.3689 26.1804 33.4071 26.2912 33.4512 26.4243C33.4954 26.5573 33.5917 26.8254 33.666 27.019C33.947 27.7527 34.0433 28.1095 34.0674 28.5107C34.1055 29.1134 33.8968 29.8835 33.5355 30.4762C33.2826 30.8934 32.815 31.4176 32.4095 31.7441C31.9359 32.1231 31.2414 32.5122 30.6754 32.7138C30.3402 32.8347 29.8866 32.9516 29.5314 33.0061C29.1781 33.0625 28.5579 33.0827 28.2348 33.0484C27.0948 32.9295 26.023 32.4194 25.449 31.724C25.18 31.3994 25.0275 31.0991 24.9291 30.708C24.883 30.5225 24.8769 30.456 24.8769 30.1839C24.8769 29.9641 24.889 29.827 24.9111 29.7222C25.0495 29.1175 25.3325 28.6256 25.8383 28.1156C26.4946 27.4564 27.3998 26.9202 28.4415 26.5775C29.6357 26.1864 31.0046 26.0493 32.7768 26.142Z" fill="white"/>
<path d="M16.1727 18.2197C15.5726 18.3709 14.9002 19.0099 13.5454 20.7093C13.13 21.2314 12.4777 22.0962 12.2328 22.449C12.1585 22.5558 12.0943 22.6445 12.0903 22.6445C12.0863 22.6445 12.1003 22.5921 12.1204 22.5276C12.1425 22.4651 12.299 21.9732 12.4696 21.435C12.7506 20.548 13.0156 19.7538 13.2444 19.1107C13.3768 18.7358 13.3748 18.5785 13.2363 18.4919C13.1701 18.4515 12.8751 18.3911 12.7406 18.3911C12.4797 18.3911 12.3191 18.6249 12.2308 19.1369C12.2147 19.2357 12.1746 19.405 12.1425 19.5139C11.9919 20.036 11.2794 22.453 10.9864 23.4408C10.8037 24.0496 10.6512 24.5798 10.6432 24.614C10.6251 24.7088 10.6592 24.741 10.7837 24.741C10.9041 24.741 11.0807 24.6685 11.3918 24.4931C11.5243 24.4185 11.6246 24.3439 11.6788 24.2814C11.7772 24.1726 12.2549 23.4529 12.6442 22.83C13.0818 22.1285 13.7622 21.1064 14.0271 20.7496C14.2158 20.4936 14.3543 20.3364 14.6273 20.0642C15.113 19.5784 15.398 19.3889 15.5425 19.4554C15.6569 19.5078 15.6188 19.6913 15.3879 20.2053C15.0869 20.8726 14.7677 21.7555 14.6393 22.2655C14.543 22.6546 14.5088 22.9086 14.4948 23.342C14.4807 23.7633 14.5048 23.9226 14.6212 24.1544C14.7095 24.3338 14.8822 24.4991 15.0447 24.5596C15.2274 24.6302 15.4783 24.6664 15.683 24.6543C16.0744 24.6302 16.54 24.4104 16.8631 24.0939C16.9595 23.9992 16.9796 23.971 16.9735 23.9226C16.9555 23.7533 16.6103 23.7815 16.2249 23.9851C15.984 24.1121 15.8737 24.1282 15.7352 24.0556C15.5646 23.969 15.4883 23.8117 15.4502 23.461C15.3739 22.7776 15.6188 21.8704 16.3012 20.3061C16.6564 19.4917 16.7628 19.1268 16.7648 18.7338C16.7668 18.5382 16.7628 18.514 16.7066 18.4011C16.6624 18.3124 16.6283 18.2721 16.5721 18.2439C16.4738 18.1935 16.3112 18.1834 16.1727 18.2197Z" fill="white"/>
<path d="M31.1041 18.4395C30.5983 18.6189 30.0323 19.135 29.0508 20.3163C28.5229 20.9513 27.698 22.0237 27.2866 22.6103C27.2103 22.7172 27.1441 22.8019 27.1401 22.7978C27.118 22.7777 28.0252 19.9877 28.268 19.3285C28.3483 19.1108 28.3644 19.0423 28.3664 18.9193C28.3684 18.7762 28.3664 18.7681 28.3042 18.7137C28.2118 18.631 28.1014 18.6048 27.8325 18.6048L27.5977 18.6028L27.5274 18.6714C27.413 18.7842 27.3367 18.9677 27.2725 19.2902C27.2424 19.4475 27.1401 19.8345 27.0457 20.149C26.9534 20.4635 26.7266 21.2315 26.5419 21.8584C26.3573 22.4854 26.0924 23.3865 25.9498 23.8642C25.6628 24.8258 25.6528 24.8641 25.6929 24.8963C25.7953 24.979 25.9759 24.9286 26.3794 24.7048C26.6182 24.5718 26.6684 24.5355 26.7426 24.4387C26.8711 24.2694 27.2645 23.6727 27.7161 22.9571C28.9003 21.0843 29.2836 20.5663 29.8837 20.028C30.1045 19.8285 30.3353 19.6712 30.4497 19.639C30.514 19.6228 30.5381 19.6249 30.5762 19.649C30.6986 19.7297 30.6745 19.8143 30.3072 20.657C29.946 21.4794 29.6589 22.3785 29.5726 22.947C29.5225 23.2716 29.5104 23.8703 29.5486 24.0517C29.6168 24.3662 29.7894 24.6101 30.0262 24.721C30.3815 24.8863 30.8431 24.8842 31.2486 24.7109C31.5095 24.602 31.9229 24.3097 31.9811 24.1948C32.0514 24.0577 31.9972 24.0094 31.7804 24.0114C31.6078 24.0134 31.4513 24.0618 31.2606 24.1747C30.9957 24.3299 30.8291 24.3258 30.6645 24.1585C30.5521 24.0477 30.514 23.9368 30.4839 23.6324C30.4136 22.9551 30.6525 22.0641 31.2987 20.5784C31.5938 19.903 31.6861 19.647 31.7624 19.2983C31.8045 19.1088 31.8105 18.752 31.7744 18.6472C31.7383 18.5464 31.658 18.4516 31.5757 18.4194C31.4734 18.375 31.2586 18.3851 31.1041 18.4395Z" fill="white"/>
<path d="M39.939 23.0174C39.939 23.0214 39.9792 23.0859 40.0294 23.1605C40.1558 23.352 40.1899 23.4629 40.1899 23.6927C40.1879 24.241 39.7704 24.7833 39.092 25.1139C38.5903 25.3618 37.9761 25.4525 37.4904 25.3558C37.3961 25.3376 37.2596 25.3175 37.1853 25.3114C37.0709 25.3034 37.0488 25.3054 37.0488 25.3336C37.0488 25.3901 37.1672 25.5009 37.3097 25.5755C37.4884 25.6703 37.665 25.7086 37.934 25.7086C38.5903 25.7086 39.2125 25.4364 39.6942 24.9345C40.0996 24.5132 40.2642 24.1684 40.2662 23.7431C40.2682 23.5536 40.2321 23.3903 40.1578 23.2432C40.0976 23.1262 39.939 22.9609 39.939 23.0174Z" fill="white"/>
</svg>
