<svg width="44" height="44" viewBox="0 0 44 44" fill="none" xmlns="http://www.w3.org/2000/svg">
<circle cx="22" cy="22" r="22" fill="black"/>
<path fill-rule="evenodd" clip-rule="evenodd" d="M15.0026 32.3838C11.0802 32.1806 9.60529 30.8733 7.38884 27.8589C5.33732 24.0941 4.82792 22.0674 5.06251 18.6033C5.97125 13.4404 7.11306 11.6084 9.50377 8.93629C13.7163 5.09771 16.431 4.19836 21.5589 4C29.1434 4.13538 31.1441 5.72396 34.4227 8.32748C34.5048 8.39268 34.5877 8.45846 34.6714 8.52493C31.5088 6.68114 29.607 5.79323 25.1542 5.64539C21.6418 5.89298 19.9037 6.47913 17.1175 8.93629C15.4945 10.8487 14.9577 12.0721 14.5796 14.4898V14.7041C14.4747 14.6983 14.369 14.6955 14.2624 14.6955C11.2841 14.6955 8.86929 17.0435 8.86929 19.9403C8.86929 22.8366 11.2841 25.1851 14.2624 25.1851C14.369 25.1851 14.4747 25.1818 14.5796 25.176V25.3907L15.0026 32.3838ZM18.8095 19.9403C18.8095 22.3825 16.7736 24.3624 14.2624 24.3624C11.7511 24.3624 9.71527 22.3825 9.71527 19.9403C9.71527 17.4976 11.7511 15.5182 14.2624 15.5182C16.7736 15.5182 18.8095 17.4976 18.8095 19.9403ZM16.678 11.1821C18.82 7.98013 20.7213 7.39144 24.5143 7.03212C28.8926 7.18654 30.9521 7.77079 33.9198 9.70051C38.0629 13.0472 39.1233 14.925 40.3073 18.2747C41.6194 23.7416 41.0631 26.4776 38.6758 30.8955C34.7628 37.216 32.348 38.1066 28.3901 39.5661C28.2911 39.6027 28.1909 39.6393 28.0898 39.6768C31.3133 37.9351 33.0548 36.7771 35.4129 33.1012C36.9483 30.0189 37.2956 28.262 36.5004 24.6869C35.6092 22.3636 34.7882 21.2998 32.8242 19.7728L32.633 19.6655C32.691 19.5799 32.7464 19.4927 32.7997 19.4026C34.289 16.8942 33.4054 13.6864 30.8256 12.2383C28.2463 10.7899 24.9478 11.6495 23.4585 14.1578C23.4056 14.2479 23.3553 14.3384 23.3079 14.4297L23.1167 14.3224L16.678 11.1821ZM25.8556 20.61C23.681 19.389 22.9357 16.6844 24.1915 14.5692C25.4469 12.4543 28.2281 11.7297 30.4026 12.9508C32.5776 14.1718 33.3229 16.8765 32.0671 18.9913C30.8117 21.1065 28.0305 21.8313 25.8556 20.61ZM34.3618 31.8885C35.9383 28.5142 36.3651 26.6186 34.5843 23.2134L28.5686 27.0662L28.3774 27.1736C28.4353 27.2591 28.4907 27.3468 28.544 27.4364C30.0334 29.9449 29.1493 33.1526 26.57 34.601C23.9906 36.0494 20.6922 35.1897 19.2028 32.6812C19.1495 32.5916 19.0996 32.5011 19.0523 32.4097L18.8611 32.5167C16.5194 33.4073 15.1616 33.5669 12.647 33.1559C9.06598 32.0379 7.67478 30.8671 5.69804 28.0329C3.60338 24.2089 3.44315 22.1632 3.50368 18.5774C3.48642 18.6811 3.46925 18.7839 3.45224 18.8855C2.77314 22.9489 2.35874 25.4282 6.03047 31.8836C8.77116 36.1033 10.9292 37.94 16.4538 39.5686C20.0289 40.2461 22.231 40.2918 27.2831 38.4756C30.4851 36.9408 32.0354 35.4986 34.3618 31.8885ZM27.8114 27.8478C26.5556 25.7326 23.7749 25.0082 21.5999 26.2291C19.4249 27.4504 18.68 30.1547 19.9354 32.2699C21.1913 34.3851 23.972 35.1095 26.147 33.8886C28.322 32.6672 29.0669 29.963 27.8114 27.8478Z" fill="url(#paint0_linear_285_1899)"/>
<defs>
<linearGradient id="paint0_linear_285_1899" x1="32.6089" y1="36.9088" x2="10.1107" y2="8.93722" gradientUnits="userSpaceOnUse">
<stop stop-color="#FF0000"/>
<stop offset="0.223958" stop-color="#D0086F"/>
<stop offset="0.484375" stop-color="#A30FD8"/>
<stop offset="0.666667" stop-color="#6308E0"/>
<stop offset="0.895833" stop-color="#2001E9"/>
<stop offset="1" stop-color="#2001E9"/>
</linearGradient>
</defs>
</svg>
